<?xml version="1.0" encoding="iso-8859-1"?>
<!-- Generator: Adobe Illustrator 19.0.0, SVG Export Plug-In . SVG Version: 6.00 Build 0)  -->
<svg version="1.1" id="Layer_1" xmlns="http://www.w3.org/2000/svg" xmlns:xlink="http://www.w3.org/1999/xlink" x="0px" y="0px"
	 viewBox="0 0 512 512" style="enable-background:new 0 0 512 512;" xml:space="preserve">
<polygon style="fill:#FFFFFF;" points="355.788,7.837 78.367,7.837 78.367,504.163 433.633,504.163 433.633,85.682 "/>
<g>
	<rect x="41.796" y="177.633" style="fill:#5BCDE4;" width="428.408" height="156.735"/>
	<polyline style="fill:#5BCDE4;" points="355.788,7.837 355.788,85.682 433.633,85.682 	"/>
</g>
<polygon style="fill:#9FE1ED;" points="394.71,46.759 355.788,85.682 355.788,7.837 "/>
<path d="M441.469,82.435L359.033,0H70.531v146.286h15.673V15.673h261.747v77.845h77.845v76.278H33.959v164.571h15.673V185.469
	h391.837V82.435z M363.624,26.756l51.088,51.089h-51.088V26.756z"/>
<path d="M462.367,177.633v148.898H70.531V512h370.939V342.204h36.571V177.633H462.367z M425.796,496.327H86.204V342.204h339.592
	V496.327z"/>
<g>
	<path style="fill:#FFFFFF;" d="M181.291,238.132c1.358-1.845,3.098-3.344,5.224-4.493c2.123-1.149,4.649-1.724,7.576-1.724
		c1.392,0,2.837,0.141,4.335,0.418c1.497,0.279,2.941,0.767,4.336,1.463c1.393,0.697,2.665,1.637,3.813,2.821
		c1.15,1.186,2.072,2.682,2.769,4.493l15.569-11.076c-2.579-4.874-6.497-8.793-11.755-11.755c-5.261-2.96-11.477-4.441-18.652-4.441
		c-5.991,0-11.32,1.08-15.987,3.239c-4.668,2.16-8.639,4.981-11.912,8.464c-3.275,3.484-5.765,7.419-7.47,11.807
		c-1.708,4.389-2.56,8.847-2.56,13.375c0,4.739,0.904,9.404,2.717,14.002c1.811,4.598,4.372,8.708,7.681,12.33
		c3.307,3.623,7.244,6.531,11.807,8.725c4.561,2.194,9.595,3.291,15.099,3.291c3.135,0,6.356-0.383,9.665-1.149
		c3.307-0.766,6.408-1.881,9.299-3.344c2.89-1.463,5.468-3.274,7.732-5.433c2.263-2.158,3.953-4.598,5.068-7.314l-16.613-9.927
		c-0.628,1.672-1.481,3.082-2.56,4.232c-1.08,1.149-2.299,2.09-3.657,2.821c-1.358,0.731-2.769,1.254-4.232,1.567
		c-1.463,0.313-2.892,0.47-4.285,0.47c-2.648,0-5.032-0.539-7.158-1.62c-2.125-1.079-3.918-2.524-5.381-4.336
		c-1.462-1.811-2.578-3.901-3.343-6.269c-0.767-2.368-1.15-4.841-1.15-7.419c0-2.299,0.329-4.614,0.993-6.949
		C178.921,242.068,179.931,239.979,181.291,238.132z"/>
	<polygon style="fill:#FFFFFF;" points="268.173,269.113 268.173,259.187 277.055,259.187 277.055,243.513 268.173,243.513 
		268.173,233.587 250.41,233.587 250.41,243.513 241.528,243.513 241.528,259.187 250.41,259.187 250.41,269.113 	"/>
	<polygon style="fill:#FFFFFF;" points="323.343,269.113 323.343,259.187 332.224,259.187 332.224,243.513 323.343,243.513 
		323.343,233.587 305.579,233.587 305.579,243.513 296.698,243.513 296.698,259.187 305.579,259.187 305.579,269.113 	"/>
</g>
<rect x="109.714" y="31.347" width="81.095" height="15.673"/>
<rect x="170.318" y="62.694" width="154.122" height="15.673"/>
<rect x="109.714" y="62.694" width="29.257" height="15.673"/>
<rect x="183.902" y="464.98" width="218.384" height="15.673"/>
<rect x="109.714" y="464.98" width="42.841" height="15.673"/>
<rect x="361.535" y="433.633" width="40.751" height="15.673"/>
<rect x="109.714" y="433.633" width="220.473" height="15.673"/>
<rect x="109.714" y="402.286" width="105.535" height="15.673"/>
<g>
</g>
<g>
</g>
<g>
</g>
<g>
</g>
<g>
</g>
<g>
</g>
<g>
</g>
<g>
</g>
<g>
</g>
<g>
</g>
<g>
</g>
<g>
</g>
<g>
</g>
<g>
</g>
<g>
</g>
</svg>
